<svg width="82" height="30" viewBox="0 0 82 30" fill="none" xmlns="http://www.w3.org/2000/svg">
<path d="M9.62608 29.9099C6.39621 29.9099 3.00293 29.3033 0.343422 27.8424V2.06746C2.96128 0.647867 6.35456 0 9.62608 0C12.8976 0 16.2108 0.606582 18.8254 2.06746V11.957H12.2407V5.2274C11.4653 4.90347 10.5233 4.78278 9.58442 4.78278C8.64558 4.78278 7.78364 4.90347 6.96656 5.2274V24.6825C7.74199 25.0064 8.64238 25.1271 9.58442 25.1271C10.5265 25.1271 11.4236 25.0064 12.2407 24.6825V17.9561H18.8254V27.8456C16.2492 29.2652 12.8559 29.8718 9.62608 29.913V29.9099Z" fill="#F7DD43"/>
<path d="M31.1745 29.9099C27.6979 29.9099 24.3463 29.1794 21.6868 27.6804V2.18814C24.3047 0.730438 27.6595 0 31.1745 0C34.6896 0 37.9611 0.689153 40.5789 2.18814V27.6804C38.0027 29.1794 34.6095 29.8686 31.1745 29.9099ZM33.9974 5.30997C33.222 4.98604 32.28 4.82407 31.1361 4.82407C29.9922 4.82407 29.0918 4.98604 28.3131 5.30997V24.5618C29.0886 24.927 30.0306 25.089 31.1361 25.089C32.2415 25.089 33.1804 24.927 33.9974 24.5618V5.30997Z" fill="#F7DD43"/>
<path d="M52.0693 18.966H50.3102V29.5446H43.6454V0.365219H52.0693C56.0778 0.365219 59.1026 1.17505 61.4737 2.83601V16.4952C59.1442 18.118 56.0746 18.966 52.0693 18.966ZM54.8506 5.38937C54.2386 4.94475 53.4183 4.7415 52.0277 4.7415H50.2269V14.5897H52.0277C53.3766 14.5897 54.1937 14.3865 54.8506 13.9831V5.38937Z" fill="#F7DD43"/>
<path d="M75.4153 29.5446V18.966H70.5097V29.5446H63.8865V2.14685C66.2993 0.727263 69.6926 0 72.9641 0C76.2356 0 79.5872 0.730439 82 2.14685V29.5446H75.4153ZM75.4153 5.06543C74.72 4.7415 73.8613 4.57953 72.9609 4.57953C72.0605 4.57953 71.2018 4.7415 70.5064 5.06543V14.3452H75.4121V5.06543H75.4153Z" fill="#F7DD43"/>
</svg>
